<?xml version="1.0" encoding="UTF-8"?>
<svg xmlns="http://www.w3.org/2000/svg" version="1.1" xmlns:xlink="http://www.w3.org/1999/xlink" viewBox="0 0 1024 1024">
  <!-- Generator: Adobe Illustrator 29.3.0, SVG Export Plug-In . SVG Version: 2.1.0 Build 146)  -->
  <defs>
    <style>
      .st0 {
        fill: url(#linear-gradient2);
      }

      .st1 {
        fill: #14101a;
      }

      .st2 {
        fill: url(#linear-gradient1);
      }

      .st3 {
        fill: url(#linear-gradient4);
      }

      .st4 {
        fill: url(#linear-gradient5);
      }

      .st5 {
        fill: url(#linear-gradient3);
      }

      .st6 {
        fill: url(#linear-gradient6);
      }

      .st7 {
        fill: #6a4cc8;
      }

      .st8 {
        fill: url(#linear-gradient);
      }
    </style>
    <linearGradient id="linear-gradient" x1="535.5" y1="254.3" x2="233.9" y2="712.4" gradientTransform="translate(0 972) scale(1 -1)" gradientUnits="userSpaceOnUse">
      <stop offset="0" stop-color="#6a54d8"/>
      <stop offset="1" stop-color="#c8bdfc"/>
    </linearGradient>
    <linearGradient id="linear-gradient1" x1="474" y1="592.9" x2="333.9" y2="380.1" gradientUnits="userSpaceOnUse">
      <stop offset="0" stop-color="#6a54d8"/>
      <stop offset="1" stop-color="#c8bdfc"/>
    </linearGradient>
    <linearGradient id="linear-gradient2" x1="777.4" y1="379.1" x2="510.1" y2="587.4" gradientTransform="translate(0 972) scale(1 -1)" gradientUnits="userSpaceOnUse">
      <stop offset="0" stop-color="#5736b2"/>
      <stop offset="1" stop-color="#886fe0"/>
    </linearGradient>
    <linearGradient id="linear-gradient3" x1="706" y1="508.8" x2="589.8" y2="418.2" gradientUnits="userSpaceOnUse">
      <stop offset="0" stop-color="#5736b2"/>
      <stop offset="1" stop-color="#886fe0"/>
    </linearGradient>
    <linearGradient id="linear-gradient4" x1="786.8" y1="242.8" x2="242.9" y2="712.3" gradientTransform="translate(0 972) scale(1 -1)" gradientUnits="userSpaceOnUse">
      <stop offset="0" stop-color="#5c3db6"/>
      <stop offset="1" stop-color="#8f77e0"/>
    </linearGradient>
    <linearGradient id="linear-gradient5" x1="417.3" y1="773.2" x2="170.4" y2="306" gradientUnits="userSpaceOnUse">
      <stop offset="0" stop-color="#6445c2"/>
      <stop offset="1" stop-color="#977ee4"/>
    </linearGradient>
    <linearGradient id="linear-gradient6" x1="386.1" y1="205.5" x2="151.4" y2="649.4" gradientTransform="translate(0 972) scale(1 -1)" gradientUnits="userSpaceOnUse">
      <stop offset="0" stop-color="#6445c2"/>
      <stop offset="1" stop-color="#977ee4"/>
    </linearGradient>
  </defs>
  <g id="Layer_2">
    <rect class="st1" width="1024" height="1024"/>
  </g>
  <g id="Layer_1">
    <path class="st8" d="M260.3,240.3c12.8,3.8,25.3,8.8,37.9,13.1l66.6,22.4,44,14.5c12.2,4,24.7,7.5,36.2,13.3,12.9,6.5,24.6,15.7,34.4,26.2.9,1,1.8,2,2.7,3s1.8,2,2.6,3.1c.9,1,1.7,2.1,2.5,3.1.8,1.1,1.6,2.1,2.4,3.2s1.5,2.2,2.3,3.3c.7,1.1,1.5,2.3,2.2,3.4s1.4,2.3,2,3.5c.7,1.2,1.3,2.4,1.9,3.5.6,1.2,1.2,2.4,1.8,3.6s1.1,2.4,1.7,3.7c.5,1.2,1,2.5,1.5,3.7s1,2.5,1.4,3.8.9,2.5,1.3,3.8.8,2.6,1.1,3.9c.4,1.3.7,2.6,1,3.9s.6,2.6.9,3.9c3.4,17.3,1.7,35.5,1.6,53v74.7l.2,145.5c0,26.3.9,52.8.1,79.1-5.1-7.8-9.4-16.2-15.1-23.6-35-45.3-79.4-56.7-131.1-74l-104.1-35.3-.2-241.4-.2-79.9c0-14.7-.4-29.5,0-44.2h0l.4.2Z"/>
    <path class="st1" d="M347.3,310.6c13.1,7.4,26.6,15,38,24.8,24.5,21,23.4,39.2,25.5,68.8,2.1-9.4,3-18.4,3.3-28,3.6,5.1,7,10.4,9.7,16.1,10.3,21.3,11.5,43.1,3.8,65.3,6.2-7.4,10.1-14.9,14.1-23.5,7.9,24.8,1.1,47.7-8.7,70.8,5.7-5.4,10.5-11.6,15.5-17.6,1.2,19.6-4.8,36.9-11.9,54.8,3.5,21.8,7.5,44,9.3,66.1.3,3.8.7,8-2,11.1-1.2.5-1.7.9-3,.4-8.1-2.9-19.2-38.3-22.3-47.3-2.7-6.6-5.1-13.2-7-20.1-24.9-11.6-44.4-29.7-57.1-54.1,11.6,6.3,23.3,12,35.8,16.3-7.6-4.8-15.3-9.5-22.2-15.2-18.6-15.5-29.9-37.3-36.7-60.2,9.8,6.7,19.7,13.1,30.2,18.6-4.9-4.4-9.9-8.6-14.7-13-15.2-14.2-21.9-33.6-22.7-54.1,8.9,8.5,18.4,15.9,29.3,21.7-12.5-12.1-25-24.8-27.4-42.8-2.8-21.9,7.9-41.9,20.9-58.6h0l.3-.3Z"/>
    <path class="st2" d="M366.2,359c.2.1.4.3.6.4,4.5,3.6,13,26.2,15.7,32.8,9.2,22.3,18.3,44.7,25.9,67.6,4.1,12.5,7.9,25.2,11.3,37.9,3.4,12.8,6.5,25.6,9.3,38.5,2.8,12.9,5.2,25.9,7.3,38.9,2.1,13,3.8,26.1,5.2,39.2-3.4-2.7-5.5-11-7-15-17.8-47.8-28-98.6-39.7-148.2-3.2-13.8-6.3-27.8-10.1-41.5-4.8-17.4-11.5-34.1-18.6-50.7h.1Z"/>
    <path class="st0" d="M770,239.3c1,1.1.8,2.8.9,4.2.3,8.7,0,17.4,0,26.1v85.8l.3,248.3c-13.8,5.2-28,9.8-41.9,14.7l-69.8,24.4c-46,16-89.5,28.3-120.4,69.1-6.9,9.1-12.4,19.1-17.9,29.1l-.8-.2c-1.7-5.8-.2-35.5,0-43.8v-258.2c0-12-.6-24.1.3-36.1,0-1.7.3-3.5.5-5.2s.4-3.4.7-5.1.6-3.4,1-5.1.8-3.4,1.2-5c.4-1.7.9-3.3,1.4-5s1.1-3.3,1.6-4.9,1.2-3.2,1.9-4.8c.7-1.6,1.3-3.2,2.1-4.8.6-1.2,1.1-2.5,1.8-3.7.6-1.2,1.2-2.5,1.9-3.7s1.3-2.4,2-3.6,1.4-2.4,2.1-3.5c.7-1.2,1.5-2.3,2.2-3.5.8-1.1,1.6-2.3,2.4-3.4.8-1.1,1.6-2.2,2.5-3.3s1.7-2.1,2.6-3.2c.9-1,1.8-2.1,2.7-3.1s1.8-2,2.8-3,1.9-2,2.9-2.9,2-1.9,3-2.8,2-1.8,3.1-2.7,2.1-1.8,3.2-2.6c1.1-.9,2.2-1.7,3.3-2.5s2.2-1.6,3.4-2.4c21.2-14.2,51.4-22.1,75.7-30.6,40.6-14.2,81.6-27.8,121.8-42.9h-.4Z"/>
    <path class="st1" d="M760.2,254.3h.4c1.2,2,.8,7.2.8,9.6.4,33.5-.2,67.2-.2,100.7v231.7c-23.6,7.3-47,16.3-70.4,24.3-19.7,6.7-39.3,13.5-58.8,20.6-20.4,7.4-41.6,14.5-59.8,26.5-16.1,10.6-28.5,25-41,39.4l-.8-.5c-.5-5.2-.2-10.6-.2-15.8v-29.5l-.4-96.3.2-111.3c0-17.9-.8-38,1.2-55.6.2-1.6.4-3.1.7-4.7s.6-3.1.9-4.7c.3-1.5.7-3.1,1.1-4.6.4-1.5.9-3.1,1.3-4.6.5-1.5,1-3,1.6-4.5.5-1.5,1.1-3,1.8-4.4.6-1.5,1.3-2.9,2-4.3s1.4-2.8,2.2-4.2c1.1-2.1,2.3-4.1,3.5-6.1s2.5-4,3.9-5.9,2.8-3.8,4.2-5.6,3-3.6,4.6-5.4,3.2-3.4,4.9-5.1,3.4-3.2,5.2-4.8,3.6-3,5.5-4.4,3.8-2.8,5.8-4.1c14.5-9.4,31.8-14.7,48-20.5,19.7-7,39.4-13.9,59.1-20.6,24.3-8.4,48.2-18,72.9-25.4h-.2Z"/>
    <path class="st5" d="M656,354.2c.9,1,.8,3,.9,4.3.3,5.8-.2,11.8-.2,17.6v36.2c20.3-7.8,40.9-15,61.3-22.6v25.2c-20,9.3-41.2,15.4-61.5,24.1v133.3c-7,2.8-14.2,5.3-21.4,7.9-1,.3-.9.4-2,.2-1.4-3.1-.5-121.6-.5-134.9-7.7,2.5-15.3,5.7-22.8,8.5-12.3,4.5-24.5,9.2-36.6,14.1,0-9,.3-18.1.4-27.2,19.8-6.5,39.5-14.3,59-21.6,0-18.7,0-37.5.2-56.2l23.2-9h0Z"/>
    <path class="st3" d="M827.1,314.1c1.7,0,3.4.4,5,.8.4,0,.8.2,1.1.3s.8.2,1.1.4c.4.1.7.3,1.1.4s.7.3,1.1.5c.3.2.7.3,1,.5s.7.4,1,.6.7.4,1,.6.7.4,1,.7c.3.2.6.5.9.7.3.2.6.5.9.8.3.3.6.5.8.8.3.3.5.6.8.8.3.3.5.6.8.9.2.3.5.6.7.9s.5.6.7,1c.2.3.4.6.6,1,2.8,4.8,3.5,10.6,3.8,16,.7,15.7,0,31.7,0,47.5l-.3,110.4v105.9c0,12.7,1.5,39.6-1.3,50.8-1.6,6.5-6.9,11.4-12.5,14.7-11.1,6.6-27.3,11.3-39.7,15.5-18.4,6.2-36.7,12.5-55,19l-173,61.3c-14.2,5-28.3,10.4-42.5,15.3-3.1,1-8.4,3.3-11.6,2.5-19.2-5.5-37.8-12.8-56.7-19.4l-96-33.5-108.3-37.5c-17.2-5.9-34.9-11-51.8-17.6-5.3-2-10.2-4.1-14.3-8.1-4.2-4.1-6.6-10-7.3-15.8-1.2-9.6-.3-19.6-.3-29.3l.3-57.1-.2-197.5c-.3-13.3-2.9-33,5.8-44.1,5.7-7.2,14-8.6,22.5-9.8v333.9c10.8,2.2,21.4,6.6,31.7,10.3,15.4,5.6,30.9,11.1,46.4,16.6l185.2,65.2c9.2,3.2,36.9,15.2,44.8,15.2s6.5-1.4,9.3-2.4c12.3-4.3,24.5-9.1,36.8-13.6l91.4-32.8,169.6-60.1-.3-320.2c0-5.4-.3-9.1,3.7-13.1h.2Z"/>
    <path class="st4" d="M239.3,269.7l11.4.2.3,342.9c18.4,5.1,36,12.6,54,18.5,23.1,7.5,46.2,15.2,69.3,23.1,25.9,8.8,52.5,16.8,75.7,31.7,16.9,10.9,34.1,29.1,45.4,45.8-9.2-4.6-17.4-12.5-25.8-18.4-11.8-8.4-24.9-15.8-38-22.1-22.6-10.9-46.9-17.6-70.6-25.8-40.7-14.1-81.4-27.9-122.3-41.4l.6-354.6h0Z"/>
    <path class="st7" d="M785.3,266.7c1.7,0,3.2.1,4.6,1.4.9.8,1.5,2,1.9,3.1.8,2.2,1,4.5,1.1,6.7.3,8.5-.3,17.1-.4,25.6l-.3,66.8.5,251.6c-29.1,9-57.4,20.2-86.1,30.2l-56.6,19.5c-16.9,5.9-33.7,11.8-49.9,19.7-21.3,10.4-40.7,23.5-59.2,38.3l-5.4,4.2c14.1-17.8,28.3-34.8,47.2-47.7,17.5-12,35.9-18.6,55.8-25.5l35.4-12.5c35.4-13,71.1-25.2,107.1-36.6l-.3-243.6-.2-65.3c0-10-1.4-21.4.4-31.2.4-2.2,2.5-3.4,4.3-4.6h.1Z"/>
    <path class="st7" d="M804.8,282.7h1.4c2.1,0,3.8.2,5.2,1.9,1.2,1.4,1.6,3.4,1.7,5.2.2,5.2-.4,10.5-.4,15.8.3,18.1.4,36.3.4,54.4v229.6c0,17,1.1,34-.6,50.9-7.4,4.5-19.7,7.5-28.1,10.4l-51.6,17.9c-26.9,9.2-53.7,18.5-80.4,28.1-26.8,9.6-53.5,19.7-80.7,28.2l-7.8,2.5c39.7-33.8,78.5-42.3,126.3-59.3,37-13.2,74.1-26.1,111.3-38.7l.2-236.3.2-70c0-10.9-.9-22,0-32.8.2-3.3,1.2-5.2,3.1-7.9h-.1Z"/>
    <path class="st6" d="M218.2,285.8h10.9v216.8c.1,42.9-.5,85.8.1,128.7,13,3.8,25.9,8.6,38.8,12.9,29.1,9.8,58.2,19.9,87.2,30.1,12.6,4.4,25.1,9.1,37.7,13.5,11.1,3.8,22.7,7,33.2,12,12.2,5.8,24.7,14.1,35.6,22.1,1.7,1.2,5.5,3.7,5.9,5.8-8.9-2.1-17.8-5.9-26.5-8.9l-56-19.3-167.4-58.2c.5-38.9,0-77.9,0-116.8l.4-238.7h0Z"/>
  </g>
</svg>